<svg xmlns="http://www.w3.org/2000/svg" viewBox="0 0 901 901" role="img" aria-label="Akarçay Patisserie mührü">
<g transform="translate(-509.30 -89.70)">
<path class="mh mh-1" d="M960.00 991.07L960.00 991.07C711.09 991.07 509.31 789.29 509.31 540.38L509.31 540.38C509.31 291.47 711.09 89.70 960.00 89.70L960.00 89.70C1208.91 89.70 1410.69 291.47 1410.69 540.38L1410.69 540.38C1410.69 789.29 1208.91 991.07 960.00 991.07" fill="#923E25"/>
<path class="mh mh-2" d="M960.00 89.70L960.00 89.70C711.09 89.70 509.31 291.48 509.31 540.38L509.31 540.38C509.31 789.29 711.09 991.07 960.00 991.07L960.00 991.07C1208.91 991.07 1410.69 789.29 1410.69 540.38L1410.69 540.38C1410.69 291.48 1208.91 89.70 960.00 89.70M960.00 98.65C1019.64 98.65 1077.49 110.33 1131.94 133.36C1184.54 155.61 1231.78 187.46 1272.35 228.03C1312.92 268.60 1344.77 315.84 1367.02 368.44C1390.05 422.90 1401.73 480.74 1401.73 540.38C1401.73 600.02 1390.05 657.87 1367.02 712.32C1344.77 764.92 1312.92 812.16 1272.35 852.73C1231.78 893.30 1184.54 925.16 1131.94 947.40C1077.49 970.44 1019.64 982.11 960.00 982.11C900.36 982.11 842.51 970.44 788.06 947.40C735.46 925.16 688.22 893.30 647.65 852.73C607.08 812.16 575.23 764.92 552.98 712.32C529.95 657.87 518.27 600.02 518.27 540.38C518.27 480.74 529.95 422.90 552.98 368.44C575.23 315.84 607.08 268.60 647.65 228.03C688.22 187.46 735.46 155.61 788.06 133.36C842.51 110.33 900.36 98.65 960.00 98.65" fill="#E3D9C6"/>
<path class="mh mh-3" d="M1361.33 540.38C1361.33 543.14 1359.10 545.38 1356.33 545.38C1353.57 545.38 1351.33 543.14 1351.33 540.38C1351.33 537.62 1353.57 535.38 1356.33 535.38C1359.10 535.38 1361.33 537.62 1361.33 540.38M568.67 540.38C568.67 543.14 566.43 545.38 563.67 545.38C560.90 545.38 558.66 543.14 558.66 540.38C558.66 537.62 560.90 535.38 563.67 535.38C566.43 535.38 568.67 537.62 568.67 540.38M1348.63 648.06L1352.56 649.24L1347.77 665.16L1320.88 657.05L1325.71 641.04L1329.64 642.22L1326.01 654.26L1332.55 656.23L1336.14 644.29L1340.07 645.48L1336.48 657.41L1345.04 659.99L1348.63 648.06M1331.03 698.40L1334.76 700.09L1327.90 715.23L1302.33 703.63L1309.24 688.39L1312.98 690.09L1307.78 701.54L1314.00 704.36L1319.15 693.01L1322.89 694.70L1317.74 706.05L1325.88 709.75L1331.03 698.40M1293.70 750.20L1304.78 757.09L1302.58 760.62L1278.74 745.79L1286.57 733.21L1290.05 735.38L1284.42 744.43L1290.22 748.03L1295.85 738.98L1299.33 741.15L1293.70 750.20M1264.30 790.88L1274.41 799.12L1271.79 802.34L1250.02 784.61L1259.37 773.13L1262.56 775.72L1255.82 783.98L1261.12 788.29L1267.85 780.03L1271.03 782.62L1264.30 790.88M1225.37 840.72C1222.47 840.61 1220.08 839.49 1218.06 837.29C1216.72 835.82 1215.82 834.16 1215.41 832.35C1215.00 830.54 1215.07 828.71 1215.64 826.90C1216.20 825.09 1217.16 823.55 1218.51 822.32C1219.88 821.06 1221.52 820.21 1223.39 819.79C1225.26 819.37 1227.09 819.43 1228.83 819.98C1230.57 820.53 1232.13 821.54 1233.46 822.99C1234.80 824.45 1235.69 826.11 1236.11 827.91C1236.52 829.72 1236.44 831.53 1235.87 833.32C1235.30 835.11 1234.29 836.67 1232.87 837.97C1230.73 839.94 1228.29 840.85 1225.37 840.72M1226.36 815.33C1222.39 815.17 1218.76 816.54 1215.66 819.39C1213.74 821.15 1212.37 823.30 1211.60 825.76C1210.83 828.23 1210.74 830.79 1211.33 833.35C1211.92 835.91 1213.13 838.20 1214.94 840.17C1217.66 843.13 1221.07 844.71 1225.08 844.88C1225.30 844.88 1225.51 844.89 1225.73 844.89C1229.48 844.89 1232.83 843.55 1235.71 840.91C1238.71 838.15 1240.32 834.72 1240.49 830.70C1240.66 826.69 1239.35 823.13 1236.59 820.13C1233.81 817.09 1230.37 815.48 1226.36 815.33M1188.09 868.20L1192.18 868.47L1192.12 869.23C1191.93 871.48 1191.22 873.61 1190.01 875.56C1188.81 877.50 1187.12 879.20 1185.00 880.59C1182.17 882.45 1179.30 883.39 1176.41 883.39C1175.15 883.39 1173.90 883.21 1172.64 882.86C1169.16 881.87 1166.32 879.73 1164.19 876.50C1161.95 873.09 1161.25 869.38 1162.11 865.47C1162.97 861.57 1165.22 858.40 1168.80 856.04C1170.96 854.62 1173.23 853.75 1175.55 853.46C1177.86 853.17 1180.13 853.43 1182.28 854.25L1182.96 854.51L1181.61 858.40L1180.90 858.16C1179.23 857.58 1177.54 857.40 1175.89 857.62C1174.23 857.85 1172.62 858.47 1171.10 859.46C1169.44 860.55 1168.16 861.98 1167.27 863.69C1166.39 865.41 1165.99 867.21 1166.10 869.04C1166.20 870.88 1166.81 872.66 1167.91 874.33C1169.59 876.88 1171.81 878.40 1174.67 878.95C1177.55 879.51 1180.25 878.92 1182.93 877.15C1185.88 875.22 1187.53 872.52 1188.00 868.90L1188.09 868.20M1087.29 901.94L1095.12 924.60L1091.15 925.97L1083.31 903.32L1077.71 905.25L1076.37 901.38L1091.55 896.13L1092.89 900.00L1087.29 901.94M1040.27 915.60C1040.95 915.72 1041.53 916.03 1042.04 916.54C1042.56 917.06 1042.88 917.67 1043.03 918.40C1043.19 919.16 1043.13 919.86 1042.87 920.56C1042.60 921.23 1042.17 921.76 1041.53 922.18C1040.85 922.63 1039.67 923.02 1038.04 923.36L1034.28 924.09L1032.77 916.71L1036.63 915.92C1038.72 915.49 1039.76 915.51 1040.27 915.60M1044.30 925.28C1045.54 924.40 1046.43 923.26 1046.93 921.91C1047.42 920.57 1047.51 919.11 1047.20 917.56C1046.81 915.69 1045.94 914.20 1044.60 913.12C1043.27 912.05 1041.69 911.49 1039.91 911.45C1038.78 911.43 1036.77 911.70 1033.80 912.31L1027.88 913.52L1033.49 941.03L1037.57 940.20L1035.10 928.11L1035.47 928.03L1047.31 938.21L1052.38 937.17L1040.50 926.95C1042.09 926.51 1043.36 925.95 1044.30 925.28M996.11 941.96L996.39 946.05L979.80 947.15L977.95 919.13L994.65 918.03L994.92 922.12L982.37 922.95L982.82 929.76L995.26 928.94L995.53 933.04L983.09 933.86L983.68 942.78L996.11 941.96M932.84 922.88C932.28 923.36 931.99 923.95 931.94 924.69C931.91 925.17 931.98 925.62 932.15 926.08C932.32 926.55 932.68 927.09 933.21 927.70C933.42 927.92 934.14 928.59 936.39 930.49C938.67 932.40 940.18 934.05 941.01 935.52C941.84 937.01 942.22 938.52 942.13 939.99C942.00 942.12 941.07 943.94 939.36 945.39C937.82 946.72 936.01 947.38 933.97 947.38C933.77 947.38 933.57 947.38 933.37 947.36C931.62 947.26 930.03 946.68 928.66 945.65C927.32 944.64 926.11 943.02 925.08 940.82L924.78 940.17L928.45 938.27L928.78 938.98C930.05 941.72 931.60 943.16 933.37 943.27C934.13 943.32 934.87 943.19 935.56 942.87C936.24 942.56 936.76 942.14 937.14 941.58C937.52 941.02 937.72 940.43 937.76 939.78C937.81 939.04 937.60 938.31 937.13 937.54C936.42 936.39 935.04 934.92 933.01 933.18C930.83 931.31 929.50 929.98 928.96 929.13C928.02 927.70 927.59 926.15 927.69 924.53C927.78 923.25 928.16 922.08 928.85 921.06C929.53 920.04 930.47 919.24 931.63 918.70C932.78 918.17 934.02 917.94 935.32 918.02C936.69 918.10 937.97 918.53 939.13 919.29C940.28 920.04 941.41 921.30 942.59 923.14L942.99 923.76L939.48 926.09L939.07 925.47C938.21 924.17 937.47 923.30 936.88 922.90C936.31 922.51 935.70 922.29 935.00 922.25C934.11 922.19 933.41 922.40 932.84 922.88M879.55 911.00L895.97 914.21L895.18 918.24L882.84 915.82L881.53 922.53L893.76 924.92L892.98 928.94L880.74 926.55L879.03 935.33L891.26 937.72L890.47 941.75L874.16 938.56L879.55 911.00M827.72 900.19C831.24 901.42 833.70 902.54 835.03 903.52C836.78 904.79 837.88 906.37 838.41 908.35C838.94 910.31 838.81 912.46 838.02 914.72C837.27 916.87 836.12 918.53 834.61 919.65C833.10 920.78 831.41 921.31 829.47 921.26C828.06 921.23 825.63 920.61 822.26 919.43L820.07 918.66L826.65 899.82L827.72 900.19M838.17 900.56C836.61 899.30 833.96 898.03 830.10 896.68L824.19 894.61L814.92 921.11L823.61 924.15C826.13 925.03 828.35 925.48 830.23 925.48C830.76 925.48 831.26 925.44 831.74 925.37C833.92 925.05 835.97 924.06 837.83 922.44C839.67 920.83 841.07 918.69 841.99 916.06C843.05 913.03 843.25 910.11 842.59 907.40C841.91 904.66 840.43 902.36 838.17 900.56M754.64 859.16L758.65 861.84L742.92 869.16L735.55 880.17L732.13 877.87L739.49 866.87L740.12 849.44L744.13 852.12L743.71 864.21L754.64 859.16M707.60 831.01C707.49 831.73 707.20 832.35 706.70 832.91C706.19 833.49 705.59 833.87 704.88 834.07C704.18 834.26 703.49 834.23 702.78 833.97C702.01 833.69 700.99 832.98 699.74 831.88L696.90 829.30L701.92 823.67L704.86 826.29C706.45 827.72 707.06 828.56 707.29 829.02C707.60 829.64 707.70 830.29 707.60 831.01M706.06 821.87L701.54 817.85L682.87 838.81L685.97 841.58L694.18 832.36L694.47 832.62L693.40 848.19L697.27 851.64L698.34 836.00C699.65 837.02 700.83 837.69 701.95 838.05C703.40 838.51 704.84 838.54 706.22 838.13C707.59 837.73 708.82 836.92 709.87 835.74C711.14 834.32 711.81 832.72 711.87 831.01C711.93 829.30 711.44 827.70 710.41 826.25C709.74 825.32 708.32 823.88 706.06 821.87M667.99 782.28L678.50 794.43L675.40 797.11L671.52 792.63L653.40 808.32L650.64 805.14L668.77 789.45L664.89 784.97L667.99 782.28M644.70 749.73C645.47 750.88 645.91 752.16 646.00 753.53C646.10 754.91 645.78 756.57 645.03 758.62L644.78 759.32L640.80 757.94L641.05 757.23C641.56 755.76 641.80 754.65 641.77 753.93C641.74 753.24 641.53 752.63 641.14 752.05C640.65 751.31 640.06 750.88 639.33 750.72C638.62 750.56 637.97 750.68 637.34 751.09C636.95 751.36 636.62 751.69 636.37 752.10C636.10 752.53 635.88 753.14 635.73 753.93C635.67 754.22 635.58 755.20 635.44 758.15C635.30 761.12 634.90 763.32 634.24 764.87C633.55 766.44 632.58 767.66 631.35 768.48C630.09 769.32 628.70 769.75 627.20 769.75C626.61 769.75 626.01 769.68 625.39 769.55C623.20 769.08 621.45 767.88 620.18 765.98C619.21 764.52 618.71 762.91 618.69 761.20C618.68 759.51 619.24 757.57 620.36 755.42L620.69 754.78L624.43 756.55L624.07 757.24C622.66 759.91 622.45 762.02 623.44 763.50C623.87 764.14 624.40 764.63 625.08 765.00C625.74 765.35 626.40 765.50 627.07 765.47C627.74 765.43 628.34 765.23 628.88 764.87C629.50 764.46 629.95 763.85 630.28 763.02C630.77 761.75 631.09 759.75 631.24 757.09C631.41 754.22 631.66 752.36 632.01 751.42C632.58 749.80 633.55 748.52 634.90 747.62C635.97 746.91 637.13 746.51 638.36 746.43C639.59 746.36 640.79 746.62 641.92 747.22C643.04 747.80 643.98 748.65 644.70 749.73M610.83 708.06L605.87 714.16L602.96 708.10L610.83 708.06M586.78 704.03L588.79 708.19L598.46 708.13L603.01 717.60L596.95 725.15L598.90 729.22L618.53 705.26L617.84 703.81L586.78 704.03M592.86 650.60L594.03 654.37C594.66 656.37 594.75 657.41 594.71 657.93C594.66 658.62 594.41 659.23 593.94 659.79C593.47 660.36 592.89 660.75 592.18 660.97C591.44 661.20 590.73 661.22 590.02 661.02C589.32 660.82 588.75 660.44 588.28 659.85C587.78 659.22 587.26 658.07 586.75 656.44L585.67 652.84L592.86 650.60M590.87 665.44C591.69 665.44 592.56 665.30 593.45 665.02C595.29 664.45 596.69 663.44 597.61 662.03C598.52 660.63 598.92 659.05 598.82 657.34C598.75 656.18 598.27 654.16 597.33 651.18L595.53 645.41L568.73 653.78L569.97 657.74L581.77 654.06L582.11 655.15C583.12 658.39 583.94 660.51 584.61 661.64C585.56 663.23 586.82 664.35 588.35 664.96C589.14 665.28 589.98 665.44 590.87 665.44M1314.35 419.71L1305.64 396.90L1345.02 381.86L1353.79 404.83L1349.09 406.62L1342.15 388.43L1331.03 392.67L1337.92 410.71L1333.22 412.50L1326.33 394.47L1312.16 399.88L1319.05 417.91L1314.35 419.71M1266.29 325.71L1263.32 321.55L1297.65 297.09L1300.62 301.25L1266.29 325.71M1213.82 233.72L1208.79 229.47L1217.10 219.48L1222.29 223.81C1224.40 225.56 1225.77 227.00 1226.36 228.09C1226.93 229.15 1227.15 230.31 1227.02 231.54C1226.88 232.78 1226.40 233.91 1225.58 234.88C1224.74 235.89 1223.71 236.60 1222.50 236.97C1221.31 237.35 1220.08 237.34 1218.84 236.93C1217.56 236.51 1215.87 235.43 1213.82 233.72M1218.16 242.02C1220.31 242.63 1222.40 242.60 1224.39 241.94C1226.37 241.28 1228.12 240.04 1229.61 238.26C1231.40 236.11 1232.31 233.75 1232.31 231.25C1232.31 228.75 1231.51 226.44 1229.93 224.37C1228.89 223.00 1226.65 220.89 1223.07 217.91L1216.39 212.35L1189.42 244.74L1193.35 248.01L1205.57 233.33L1206.79 234.34L1205.94 258.49L1210.82 262.55L1211.67 238.38C1214.07 240.25 1216.24 241.47 1218.16 242.02M1116.70 154.61L1139.22 164.47L1137.20 169.07L1119.37 161.27L1114.60 172.17L1132.28 179.90L1130.27 184.51L1112.58 176.78L1106.50 190.67L1124.19 198.41L1122.17 203.02L1099.81 193.23L1116.70 154.61M1009.89 136.18C1009.78 136.99 1009.84 137.81 1010.08 138.62C1010.31 139.44 1010.84 140.39 1011.64 141.45C1012.09 142.02 1013.66 143.62 1016.30 146.20C1019.50 149.32 1021.65 152.04 1022.71 154.30C1023.78 156.59 1024.17 158.84 1023.87 160.97C1023.45 164.05 1021.89 166.60 1019.25 168.55C1017.11 170.12 1014.71 170.92 1012.11 170.92C1011.50 170.92 1010.88 170.87 1010.24 170.78C1007.68 170.43 1005.42 169.41 1003.52 167.76C1001.64 166.11 1000.02 163.56 998.73 160.16L998.56 159.71L1003.23 157.71L1003.41 158.20C1005.15 162.82 1007.55 165.37 1010.54 165.78C1011.81 165.95 1013.07 165.82 1014.28 165.38C1015.48 164.94 1016.44 164.26 1017.16 163.35C1017.87 162.44 1018.31 161.42 1018.47 160.31C1018.64 159.06 1018.38 157.74 1017.68 156.40C1016.69 154.47 1014.67 151.99 1011.69 149.03C1008.58 145.93 1006.73 143.78 1006.02 142.46C1004.80 140.26 1004.35 137.96 1004.67 135.63C1004.92 133.77 1005.61 132.12 1006.71 130.71C1007.81 129.30 1009.25 128.26 1010.99 127.60C1012.72 126.94 1014.55 126.74 1016.44 127.00C1018.44 127.27 1020.27 128.04 1021.87 129.27C1023.46 130.49 1025.05 132.55 1026.59 135.41L1026.82 135.84L1022.29 138.39L1022.04 137.95C1020.82 135.78 1019.73 134.29 1018.80 133.54C1017.88 132.81 1016.82 132.35 1015.64 132.19C1014.11 131.98 1012.85 132.26 1011.76 133.04C1010.69 133.82 1010.08 134.85 1009.89 136.18M915.74 158.21C916.18 161.29 915.39 164.17 913.38 166.77C911.38 169.37 908.68 170.93 905.35 171.40C904.69 171.50 904.05 171.55 903.41 171.55C901.54 171.55 899.75 171.15 898.05 170.35C895.78 169.29 893.53 167.28 891.34 164.37L891.05 163.98L894.99 160.78L895.31 161.19C898.25 165.15 901.26 166.95 904.25 166.51C905.52 166.33 906.70 165.85 907.73 165.09C908.76 164.34 909.50 163.42 909.94 162.35C910.38 161.28 910.52 160.18 910.36 159.07C910.18 157.82 909.56 156.62 908.53 155.53C907.04 153.95 904.41 152.12 900.73 150.09C896.89 147.97 894.51 146.42 893.47 145.35C891.69 143.57 890.62 141.49 890.28 139.15C890.01 137.30 890.22 135.52 890.89 133.86C891.56 132.20 892.65 130.80 894.14 129.69C895.63 128.58 897.33 127.88 899.22 127.61C901.21 127.32 903.18 127.55 905.06 128.29C906.93 129.03 909.02 130.57 911.29 132.89L911.64 133.24L907.98 136.95L907.62 136.59C905.85 134.84 904.39 133.71 903.29 133.25C902.20 132.80 901.06 132.65 899.88 132.82C898.36 133.04 897.21 133.66 896.39 134.71C895.57 135.75 895.26 136.91 895.46 138.24C895.57 139.05 895.86 139.82 896.31 140.54C896.76 141.26 897.53 142.03 898.60 142.83C899.18 143.25 901.13 144.35 904.38 146.10C908.32 148.22 911.14 150.24 912.77 152.12C914.43 154.03 915.43 156.08 915.74 158.21M818.46 194.10L813.74 196.07L813.55 195.60L797.51 157.17L802.23 155.20L802.42 155.66L818.46 194.10M734.52 241.97L712.33 212.22L704.97 217.70L701.97 213.67L720.84 199.59L723.85 203.62L716.49 209.11L738.69 238.87L734.52 241.97M650.62 298.74L643.09 308.70L636.32 295.73L650.62 298.74M645.63 313.58L655.95 299.94L670.65 302.95L673.99 298.53L628.52 288.78L627.53 290.09L649.13 331.40L652.56 326.86L645.63 313.58M571.32 405.94L573.65 399.58C574.58 397.04 575.47 395.29 576.30 394.35C577.10 393.46 578.12 392.86 579.35 392.58C580.57 392.30 581.80 392.37 583.00 392.81C584.23 393.26 585.23 394.00 585.99 395.01C586.74 396.01 587.14 397.18 587.17 398.47C587.20 399.80 586.73 401.78 585.79 404.35L583.49 410.40L571.32 405.94M606.18 418.70L588.21 412.12L589.05 409.84C590.84 404.95 591.82 401.63 592.04 399.67C592.36 396.96 591.89 394.53 590.67 392.47C589.44 390.40 587.46 388.85 584.79 387.87C582.13 386.90 579.62 386.82 577.31 387.64C575.02 388.46 573.14 389.93 571.73 392.02C570.75 393.47 569.47 396.35 567.83 400.84L564.84 409.01L604.42 423.50L606.18 418.70" fill="#E3D9C6"/>
<path class="mh mh-4" d="M914.80 315.03L914.80 325.59C892.98 300.85 861.04 285.25 825.46 285.25C759.68 285.25 706.35 338.58 706.35 404.37C706.35 470.15 759.68 523.49 825.46 523.49C847.17 523.49 867.50 517.65 885.02 507.51L885.02 487.99C869.22 505.76 848.35 516.58 825.46 516.58C776.12 516.58 736.12 466.34 736.12 404.37C736.12 342.39 776.12 292.15 825.46 292.15C874.80 292.15 914.80 342.39 914.80 404.36L914.80 404.37C914.80 406.69 914.73 408.98 914.62 411.27L914.80 411.27L914.80 523.48C931.25 523.48 944.58 510.15 944.58 493.71L944.58 285.25C928.13 285.25 914.80 298.58 914.80 315.03" fill="#E3D9C6"/>
<path class="mh mh-5" d="M1013.88 463.93C996.10 448.12 985.28 427.25 985.28 404.37C985.28 355.03 1035.52 315.03 1097.49 315.03C1159.47 315.03 1209.71 355.03 1209.71 404.37C1209.71 453.71 1159.47 493.71 1097.49 493.71C1095.18 493.71 1092.88 493.63 1090.59 493.52L1090.59 493.71L1018.75 493.71L978.38 493.71C978.38 510.15 991.71 523.48 1008.16 523.48L1216.61 523.48C1216.61 507.04 1203.28 493.71 1186.83 493.71L1176.27 493.71C1201.01 471.88 1216.61 439.95 1216.61 404.37C1216.61 338.58 1163.28 285.25 1097.49 285.25C1031.71 285.25 978.38 338.58 978.38 404.37C978.38 426.07 984.21 446.40 994.35 463.93L1013.88 463.93" fill="#E3D9C6"/>
<path class="mh mh-6" d="M1097.49 557.28C1075.79 557.28 1055.46 563.11 1037.93 573.26L1037.93 592.78C1053.74 575.00 1074.61 564.18 1097.49 564.18C1146.84 564.18 1186.83 614.42 1186.83 676.40C1186.83 738.37 1146.84 788.61 1097.49 788.61C1048.16 788.61 1008.16 738.38 1008.16 676.40L1008.16 676.39C1008.16 674.08 1008.23 671.78 1008.34 669.50L1008.16 669.50L1008.16 557.28C991.71 557.28 978.38 570.61 978.38 587.06L978.38 795.52C994.82 795.52 1008.16 782.18 1008.16 765.74L1008.16 755.18C1029.98 779.91 1061.91 795.52 1097.49 795.52C1163.28 795.52 1216.61 742.18 1216.61 676.40C1216.61 610.61 1163.28 557.28 1097.49 557.28" fill="#E3D9C6"/>
<path class="mh mh-7" d="M909.08 616.84C926.86 632.64 937.68 653.51 937.68 676.40C937.68 725.74 887.44 765.74 825.46 765.74C763.49 765.74 713.25 725.74 713.25 676.40C713.25 627.06 763.48 587.06 825.46 587.06L825.47 587.06C827.79 587.06 830.08 587.13 832.36 587.24L832.36 587.06L944.58 587.06C944.58 570.61 931.25 557.28 914.80 557.28L706.35 557.28C706.35 573.73 719.68 587.06 736.12 587.06L746.69 587.06C721.95 608.89 706.35 640.82 706.35 676.40C706.35 742.19 759.68 795.52 825.46 795.52C891.25 795.52 944.58 742.19 944.58 676.40C944.58 654.69 938.75 634.36 928.60 616.84L909.08 616.84" fill="#E3D9C6"/>
</g></svg>