<svg xmlns="http://www.w3.org/2000/svg" viewBox="0 0 385 385" role="img" aria-label="Akarçay">
<g transform="translate(-120.20 -347.90)">
<path class="lg-square" d="M120.23 347.92H505.15V732.84H120.23Z" fill="#923E25"/>
<path class="lg-petal lg-petal-1" d="M284.99 402.79L284.99 409.26C271.66 394.15 252.17 384.61 230.44 384.61C190.28 384.61 157.72 417.17 157.72 457.34C157.72 497.50 190.28 530.07 230.44 530.07C243.70 530.07 256.11 526.50 266.81 520.31L266.81 508.39C257.16 519.24 244.42 525.85 230.44 525.85C200.32 525.85 175.90 495.18 175.90 457.34C175.90 419.50 200.32 388.82 230.44 388.82C260.57 388.82 284.99 419.50 284.99 457.34C284.99 458.75 284.95 460.16 284.88 461.55L284.99 461.55L284.99 505.42L284.99 530.07C295.03 530.07 303.17 521.93 303.17 511.88L303.17 384.61C293.13 384.61 284.99 392.75 284.99 402.79" fill="#E3D9C6"/>
<path class="lg-petal lg-petal-2" d="M345.48 493.70C334.63 484.05 328.02 471.31 328.02 457.34C328.02 427.21 358.69 402.79 396.53 402.79C434.37 402.79 465.05 427.21 465.05 457.34C465.05 487.46 434.37 511.88 396.53 511.88C395.12 511.88 393.72 511.84 392.32 511.77L392.32 511.88L348.46 511.88L323.81 511.88C323.81 521.93 331.95 530.07 341.99 530.07L469.26 530.07C469.26 520.02 461.12 511.88 451.08 511.88L444.61 511.88C459.72 498.56 469.26 479.07 469.26 457.34C469.26 417.17 436.70 384.61 396.53 384.61C356.37 384.61 323.81 417.17 323.81 457.34C323.81 470.59 327.37 483.00 333.56 493.70L345.48 493.70" fill="#E3D9C6"/>
<path class="lg-petal lg-petal-3" d="M396.53 550.70C383.28 550.70 370.87 554.26 360.17 560.45L360.17 572.37C369.82 561.52 382.56 554.91 396.53 554.91C426.66 554.91 451.08 585.59 451.08 623.43C451.08 661.27 426.66 691.94 396.53 691.94C366.41 691.94 341.99 661.27 341.99 623.43C341.99 622.01 342.03 620.61 342.10 619.21L341.99 619.21L341.99 575.35L341.99 550.70C331.95 550.70 323.81 558.84 323.81 568.88L323.81 696.16C333.85 696.16 341.99 688.02 341.99 677.97L341.99 671.51C355.31 686.61 374.80 696.16 396.53 696.16C436.70 696.16 469.26 663.59 469.26 623.43C469.26 583.26 436.70 550.70 396.53 550.70" fill="#E3D9C6"/>
<path class="lg-petal lg-petal-4" d="M281.50 587.06C292.35 596.71 298.96 609.45 298.96 623.43C298.96 653.55 268.28 677.97 230.44 677.97C192.60 677.97 161.93 653.55 161.93 623.43C161.93 593.30 192.60 568.88 230.44 568.88L230.45 568.88C231.86 568.88 233.26 568.93 234.66 568.99L234.66 568.88L303.17 568.88L303.17 568.88C303.17 558.84 295.03 550.70 284.99 550.70L157.72 550.70C157.72 560.74 165.86 568.88 175.90 568.88L182.37 568.88C167.26 582.21 157.72 601.70 157.72 623.43C157.72 663.59 190.28 696.16 230.44 696.16C270.61 696.16 303.17 663.59 303.17 623.43C303.17 610.18 299.61 597.76 293.42 587.06L281.50 587.06" fill="#E3D9C6"/>
</g>
</svg>